<?xml version="1.0" encoding="utf-8"?><!-- Uploaded to: SVG Repo, www.svgrepo.com, Generator: SVG Repo Mixer Tools -->
<svg width="800px" height="800px" viewBox="0 0 100 100" xmlns="http://www.w3.org/2000/svg"><title>Ecommerce copia 3</title><rect x="25" y="79" width="40" height="2" fill="#495771"/><rect x="34" y="56" width="2" height="18" fill="#495771"/><path d="M40.29,62.7L35,57.41,29.71,62.7l-1.41-1.41,6-6a1,1,0,0,1,1.41,0l6,6Z" fill="#495771"/><rect x="53" y="56" width="2" height="18" fill="#495771"/><path d="M59.29,62.7L54,57.41,48.71,62.7l-1.41-1.41,6-6a1,1,0,0,1,1.41,0l6,6Z" fill="#495771"/><polygon points="67 6 67 6.17 56.12 22 56 22 34.12 22 45 6.17 45 6 67 6" fill="#9ae3f0"/><polygon points="56 22.17 56 46 45 36 34 46 34 22.17 34.12 22 56 22 56 22.17" fill="#9ae3f0"/><polygon points="34.12 22 34 22.17 34 22 34.12 22" fill="#9ae3f0"/><path d="M88,95H4a3,3,0,0,1-3-3V22a1,1,0,0,1,.18-0.57l11-16A1,1,0,0,1,13,5H98a1,1,0,0,1,1,1V78a1,1,0,0,1-.15.53l-10,16A1,1,0,0,1,88,95ZM3,23V92a1,1,0,0,0,1,1H87.45L97,77.71V9.49l-8.15,13A1,1,0,0,1,88,23H3Zm0.9-2H87.45L96.2,7H13.53Z" fill="#495771"/><rect x="87" y="22" width="2" height="72" fill="#495771"/><rect width="100" height="100" fill="none"/></svg>